<svg xmlns="http://www.w3.org/2000/svg" width="1720" height="1200" viewBox="0 0 1720 1200">
<rect width="1720" height="1200" fill="#F6F2EC"/>
<text x="860.0" y="58" text-anchor="middle" font-family="Georgia, serif" font-size="30" fill="#2B2A28">Building Pause Interior, and lifting it to the next level</text>
<text x="860.0" y="86" text-anchor="middle" font-family="Helvetica, Arial, sans-serif" font-size="15" letter-spacing="3" fill="#52584E">A MINDMAP OF THE WHOLE PICTURE</text>
<path d="M 1030 600 C 1120 600, 1070 258.0, 1160 258.0" fill="none" stroke="#52584E" stroke-width="2.5" opacity="0.7"/>
<path d="M 1030 600 C 1120 600, 1070 486.0, 1160 486.0" fill="none" stroke="#7d6f5a" stroke-width="2.5" opacity="0.7"/>
<path d="M 1030 600 C 1120 600, 1070 714.0, 1160 714.0" fill="none" stroke="#6b7268" stroke-width="2.5" opacity="0.7"/>
<path d="M 1030 600 C 1120 600, 1070 942.0, 1160 942.0" fill="none" stroke="#8f7d5a" stroke-width="2.5" opacity="0.7"/>
<path d="M 690 600 C 600 600, 650 258.0, 560 258.0" fill="none" stroke="#5f6b63" stroke-width="2.5" opacity="0.7"/>
<path d="M 690 600 C 600 600, 650 486.0, 560 486.0" fill="none" stroke="#9a8c72" stroke-width="2.5" opacity="0.7"/>
<path d="M 690 600 C 600 600, 650 714.0, 560 714.0" fill="none" stroke="#737a6e" stroke-width="2.5" opacity="0.7"/>
<path d="M 690 600 C 600 600, 650 942.0, 560 942.0" fill="none" stroke="#8a6f4f" stroke-width="2.5" opacity="0.7"/>
<rect x="690" y="534" rx="20" ry="20" width="340" height="132" fill="#52584E"/>
<rect x="710" y="570" width="40" height="6" rx="3" fill="#FBF9F5"/>
<rect x="710" y="570" width="14" height="6" rx="3" fill="#FBF9F5"/>
<text x="860" y="598" text-anchor="middle" font-family="Georgia, serif" font-size="32" letter-spacing="3" fill="#FBF9F5">PAUSE INTERIOR</text>
<text x="860" y="634" text-anchor="middle" font-family="Georgia, serif" font-style="italic" font-size="19" fill="#d8d2c6">to the next level</text>
<g><rect x="1160" y="166.0" rx="16" ry="16" width="520" height="184" fill="#FBF9F5" stroke="#52584E" stroke-width="2"/><rect x="1160" y="166.0" rx="16" ry="16" width="10" height="184" fill="#52584E"/><text x="1194" y="210.0" font-family="Georgia, serif" font-size="27" font-weight="600" fill="#52584E">Brand &amp; Story</text><circle cx="1200" cy="243.0" r="3.5" fill="#B8A68F"/><text x="1214" y="248.0" font-family="Helvetica, Arial, sans-serif" font-size="17" fill="#2B2A28">Her true founder story</text><circle cx="1200" cy="270.0" r="3.5" fill="#B8A68F"/><text x="1214" y="275.0" font-family="Helvetica, Arial, sans-serif" font-size="17" fill="#2B2A28">One idea: the pause</text><circle cx="1200" cy="297.0" r="3.5" fill="#B8A68F"/><text x="1214" y="302.0" font-family="Helvetica, Arial, sans-serif" font-size="17" fill="#2B2A28">Calm voice and look</text><circle cx="1200" cy="324.0" r="3.5" fill="#B8A68F"/><text x="1214" y="329.0" font-family="Helvetica, Arial, sans-serif" font-size="17" fill="#2B2A28">Photography comes first</text></g>
<g><rect x="1160" y="394.0" rx="16" ry="16" width="520" height="184" fill="#FBF9F5" stroke="#7d6f5a" stroke-width="2"/><rect x="1160" y="394.0" rx="16" ry="16" width="10" height="184" fill="#7d6f5a"/><text x="1194" y="438.0" font-family="Georgia, serif" font-size="27" font-weight="600" fill="#7d6f5a">Product &amp; Collection</text><circle cx="1200" cy="471.0" r="3.5" fill="#B8A68F"/><text x="1214" y="476.0" font-family="Helvetica, Arial, sans-serif" font-size="17" fill="#2B2A28">Curate, not sprawl</text><circle cx="1200" cy="498.0" r="3.5" fill="#B8A68F"/><text x="1214" y="503.0" font-family="Helvetica, Arial, sans-serif" font-size="17" fill="#2B2A28">A few hero pieces</text><circle cx="1200" cy="525.0" r="3.5" fill="#B8A68F"/><text x="1214" y="530.0" font-family="Helvetica, Arial, sans-serif" font-size="17" fill="#2B2A28">Easy entry products</text><circle cx="1200" cy="552.0" r="3.5" fill="#B8A68F"/><text x="1214" y="557.0" font-family="Helvetica, Arial, sans-serif" font-size="17" fill="#2B2A28">Honest natural materials</text></g>
<g><rect x="1160" y="622.0" rx="16" ry="16" width="520" height="184" fill="#FBF9F5" stroke="#6b7268" stroke-width="2"/><rect x="1160" y="622.0" rx="16" ry="16" width="10" height="184" fill="#6b7268"/><text x="1194" y="666.0" font-family="Georgia, serif" font-size="27" font-weight="600" fill="#6b7268">Website &amp; Shop</text><circle cx="1200" cy="699.0" r="3.5" fill="#B8A68F"/><text x="1214" y="704.0" font-family="Helvetica, Arial, sans-serif" font-size="17" fill="#2B2A28">Calm, fast, mobile</text><circle cx="1200" cy="726.0" r="3.5" fill="#B8A68F"/><text x="1214" y="731.0" font-family="Helvetica, Arial, sans-serif" font-size="17" fill="#2B2A28">Effortless checkout</text><circle cx="1200" cy="753.0" r="3.5" fill="#B8A68F"/><text x="1214" y="758.0" font-family="Helvetica, Arial, sans-serif" font-size="17" fill="#2B2A28">Journal for SEO</text><circle cx="1200" cy="780.0" r="3.5" fill="#B8A68F"/><text x="1214" y="785.0" font-family="Helvetica, Arial, sans-serif" font-size="17" fill="#2B2A28">Visible trust signals</text></g>
<g><rect x="1160" y="850.0" rx="16" ry="16" width="520" height="184" fill="#FBF9F5" stroke="#8f7d5a" stroke-width="2"/><rect x="1160" y="850.0" rx="16" ry="16" width="10" height="184" fill="#8f7d5a"/><text x="1194" y="894.0" font-family="Georgia, serif" font-size="27" font-weight="600" fill="#8f7d5a">Marketing Engine</text><circle cx="1200" cy="927.0" r="3.5" fill="#B8A68F"/><text x="1214" y="932.0" font-family="Helvetica, Arial, sans-serif" font-size="17" fill="#2B2A28">Email first (Klaviyo)</text><circle cx="1200" cy="954.0" r="3.5" fill="#B8A68F"/><text x="1214" y="959.0" font-family="Helvetica, Arial, sans-serif" font-size="17" fill="#2B2A28">Pinterest and Instagram</text><circle cx="1200" cy="981.0" r="3.5" fill="#B8A68F"/><text x="1214" y="986.0" font-family="Helvetica, Arial, sans-serif" font-size="17" fill="#2B2A28">Content that compounds</text><circle cx="1200" cy="1008.0" r="3.5" fill="#B8A68F"/><text x="1214" y="1013.0" font-family="Helvetica, Arial, sans-serif" font-size="17" fill="#2B2A28">Ads only when they pay</text></g>
<g><rect x="40" y="166.0" rx="16" ry="16" width="520" height="184" fill="#FBF9F5" stroke="#5f6b63" stroke-width="2"/><rect x="40" y="166.0" rx="16" ry="16" width="10" height="184" fill="#5f6b63"/><text x="74" y="210.0" font-family="Georgia, serif" font-size="27" font-weight="600" fill="#5f6b63">Customers &amp; Community</text><circle cx="80" cy="243.0" r="3.5" fill="#B8A68F"/><text x="94" y="248.0" font-family="Helvetica, Arial, sans-serif" font-size="17" fill="#2B2A28">Own the audience</text><circle cx="80" cy="270.0" r="3.5" fill="#B8A68F"/><text x="94" y="275.0" font-family="Helvetica, Arial, sans-serif" font-size="17" fill="#2B2A28">Reviews and real photos</text><circle cx="80" cy="297.0" r="3.5" fill="#B8A68F"/><text x="94" y="302.0" font-family="Helvetica, Arial, sans-serif" font-size="17" fill="#2B2A28">Slow letters, now and then</text><circle cx="80" cy="324.0" r="3.5" fill="#B8A68F"/><text x="94" y="329.0" font-family="Helvetica, Arial, sans-serif" font-size="17" fill="#2B2A28">A real human answers</text></g>
<g><rect x="40" y="394.0" rx="16" ry="16" width="520" height="184" fill="#FBF9F5" stroke="#9a8c72" stroke-width="2"/><rect x="40" y="394.0" rx="16" ry="16" width="10" height="184" fill="#9a8c72"/><text x="74" y="438.0" font-family="Georgia, serif" font-size="27" font-weight="600" fill="#9a8c72">Operations &amp; Care</text><circle cx="80" cy="471.0" r="3.5" fill="#B8A68F"/><text x="94" y="476.0" font-family="Helvetica, Arial, sans-serif" font-size="17" fill="#2B2A28">Traceable materials</text><circle cx="80" cy="498.0" r="3.5" fill="#B8A68F"/><text x="94" y="503.0" font-family="Helvetica, Arial, sans-serif" font-size="17" fill="#2B2A28">Made to last</text><circle cx="80" cy="525.0" r="3.5" fill="#B8A68F"/><text x="94" y="530.0" font-family="Helvetica, Arial, sans-serif" font-size="17" fill="#2B2A28">A considered unboxing</text><circle cx="80" cy="552.0" r="3.5" fill="#B8A68F"/><text x="94" y="557.0" font-family="Helvetica, Arial, sans-serif" font-size="17" fill="#2B2A28">Smooth delivery</text></g>
<g><rect x="40" y="622.0" rx="16" ry="16" width="520" height="184" fill="#FBF9F5" stroke="#737a6e" stroke-width="2"/><rect x="40" y="622.0" rx="16" ry="16" width="10" height="184" fill="#737a6e"/><text x="74" y="666.0" font-family="Georgia, serif" font-size="27" font-weight="600" fill="#737a6e">Finance &amp; Growth</text><circle cx="80" cy="699.0" r="3.5" fill="#B8A68F"/><text x="94" y="704.0" font-family="Helvetica, Arial, sans-serif" font-size="17" fill="#2B2A28">Know your numbers</text><circle cx="80" cy="726.0" r="3.5" fill="#B8A68F"/><text x="94" y="731.0" font-family="Helvetica, Arial, sans-serif" font-size="17" fill="#2B2A28">Value above cost to acquire</text><circle cx="80" cy="753.0" r="3.5" fill="#B8A68F"/><text x="94" y="758.0" font-family="Helvetica, Arial, sans-serif" font-size="17" fill="#2B2A28">Protect the margin</text><circle cx="80" cy="780.0" r="3.5" fill="#B8A68F"/><text x="94" y="785.0" font-family="Helvetica, Arial, sans-serif" font-size="17" fill="#2B2A28">Five metrics each week</text></g>
<g><rect x="40" y="850.0" rx="16" ry="16" width="520" height="184" fill="#FBF9F5" stroke="#8a6f4f" stroke-width="2"/><rect x="40" y="850.0" rx="16" ry="16" width="10" height="184" fill="#8a6f4f"/><text x="74" y="894.0" font-family="Georgia, serif" font-size="27" font-weight="600" fill="#8a6f4f">Next Level: Scale</text><circle cx="80" cy="927.0" r="3.5" fill="#B8A68F"/><text x="94" y="932.0" font-family="Helvetica, Arial, sans-serif" font-size="17" fill="#2B2A28">Styling service</text><circle cx="80" cy="954.0" r="3.5" fill="#B8A68F"/><text x="94" y="959.0" font-family="Helvetica, Arial, sans-serif" font-size="17" fill="#2B2A28">Trade and B2B</text><circle cx="80" cy="981.0" r="3.5" fill="#B8A68F"/><text x="94" y="986.0" font-family="Helvetica, Arial, sans-serif" font-size="17" fill="#2B2A28">A Pause Circle membership</text><circle cx="80" cy="1008.0" r="3.5" fill="#B8A68F"/><text x="94" y="1013.0" font-family="Helvetica, Arial, sans-serif" font-size="17" fill="#2B2A28">New markets and stockists</text></g>
<text x="860.0" y="1174" text-anchor="middle" font-family="Helvetica, Arial, sans-serif" font-size="13" fill="#6b675f">Pause Interior, fewer better things, made to last. Designed in Sweden.</text>
</svg>